<?xml version="1.0" standalone="no"?>
<!DOCTYPE svg PUBLIC "-//W3C//DTD SVG 20010904//EN"
 "http://www.w3.org/TR/2001/REC-SVG-20010904/DTD/svg10.dtd">
<svg version="1.0" xmlns="http://www.w3.org/2000/svg"
 width="496.000000pt" height="503.000000pt" viewBox="0 0 496.000000 503.000000"
 preserveAspectRatio="xMidYMid meet">
<metadata>
Created by potrace 1.10, written by Peter Selinger 2001-2011
</metadata>
<g transform="translate(0.000000,503.000000) scale(0.050000,-0.050000)"
fill="#000000" stroke="none">
<path d="M8809 10033 c26 -19 30 -31 14 -41 -28 -18 -30 -52 -3 -52 11 0 20
15 20 33 0 19 6 28 12 21 7 -7 27 2 45 20 29 30 33 29 43 -6 5 -21 22 -40 36
-43 18 -4 16 9 -7 44 -27 40 -40 46 -80 31 -29 -12 -52 -11 -59 1 -7 10 -23
19 -35 19 -12 0 -6 -12 14 -27z"/>
<path d="M8914 9846 c6 -15 -4 -44 -22 -63 -27 -30 -27 -36 -3 -36 16 0 25 7
20 15 -5 8 -1 21 11 28 11 7 20 3 20 -9 0 -11 13 -21 29 -21 16 0 27 17 26 40
-2 22 -12 40 -21 40 -10 0 -13 -14 -6 -31 7 -19 3 -26 -10 -18 -12 8 -17 29
-12 48 5 19 -3 34 -17 34 -14 0 -20 -12 -15 -27z"/>
<path d="M3994 9448 c-2 -2 -53 -8 -114 -14 -235 -24 -422 -96 -661 -256 -379
-253 -688 -882 -561 -1143 23 -49 55 -133 71 -187 16 -54 43 -147 60 -208 18
-60 42 -186 54 -279 13 -107 35 -187 58 -216 l36 -47 7 56 c5 34 16 -4 28 -94
16 -121 15 -154 -7 -173 -78 -66 -43 -241 45 -219 61 15 125 -90 79 -129 -27
-22 -45 -12 -123 70 l-91 95 13 184 c15 194 5 252 -40 252 -76 0 -18 -481 72
-604 22 -30 40 -64 40 -75 0 -66 161 -88 235 -31 3 2 -25 93 -63 203 -100 286
-143 908 -73 1045 37 73 42 105 30 212 -15 139 -1 210 41 210 15 0 40 24 54
54 14 29 40 57 56 62 22 7 20 -1 -8 -33 -21 -24 -29 -43 -17 -43 12 0 43 26
69 57 39 45 70 59 151 67 71 7 121 26 164 62 35 29 96 69 137 88 41 19 83 46
95 61 11 15 51 28 90 29 38 1 80 10 94 21 23 19 119 44 240 64 60 10 57 -16
-5 -49 -27 -15 -46 -31 -42 -35 5 -5 49 15 97 43 169 99 411 61 485 -75 21
-40 46 -73 55 -73 8 0 15 -12 15 -27 0 -73 128 -327 207 -412 120 -128 128
-148 171 -405 62 -373 63 -385 34 -498 -15 -59 -28 -167 -27 -240 0 -72 -11
-153 -25 -179 -14 -26 -27 -61 -29 -78 -7 -66 -53 -200 -74 -213 -15 -9 -15
-17 1 -27 17 -10 16 -31 -4 -78 -15 -35 -34 -57 -44 -48 -9 8 -11 0 -5 -17 13
-37 -48 -147 -118 -212 -26 -24 -47 -51 -48 -60 -1 -39 -83 -110 -129 -113
-27 -2 -50 -9 -50 -17 0 -8 -13 -10 -28 -4 -15 6 -34 1 -41 -11 -24 -38 -51
-22 -51 29 0 28 9 50 20 50 31 0 24 34 -10 47 -16 6 -29 5 -28 -3 5 -34 -28
-103 -44 -93 -10 6 -18 -3 -18 -20 0 -18 14 -37 30 -44 16 -6 30 -20 30 -32 0
-11 -13 -9 -30 5 -21 17 -30 18 -30 2 0 -41 -37 -23 -46 23 -8 42 -9 42 -11
-5 -3 -59 -247 -79 -281 -23 -12 20 -21 21 -31 4 -22 -36 -157 -16 -195 29
-31 36 -35 36 -35 5 -1 -19 -14 -35 -30 -35 -18 0 -25 12 -18 30 13 34 -15 40
-45 10 -42 -42 -111 48 -103 134 9 84 -22 133 -66 105 -38 -23 -65 -1 -38 32
17 21 17 35 -4 56 -15 15 -40 46 -55 69 -16 22 -39 36 -51 32 -14 -6 -34 33
-50 96 -15 58 -48 127 -74 154 -26 26 -47 60 -47 75 0 15 -9 27 -20 27 -11 0
-20 14 -20 30 0 17 -10 30 -21 30 -12 0 -16 9 -8 21 7 11 -2 43 -20 70 -18 28
-27 59 -21 70 7 10 3 19 -9 19 -38 0 -45 -52 -20 -143 13 -48 31 -136 41 -197
33 -209 57 -299 100 -384 24 -47 50 -135 56 -195 12 -113 94 -204 180 -199 26
1 27 3 3 13 -32 12 -99 86 -100 110 -2 43 92 5 161 -64 208 -211 906 -248
1109 -59 23 21 50 38 61 38 10 0 65 41 122 90 56 50 106 90 111 90 22 0 11
-240 -11 -241 -13 0 -8 -9 11 -21 20 -11 53 -15 75 -8 31 10 41 1 51 -44 7
-31 22 -91 32 -133 20 -79 -7 -193 -45 -193 -10 0 -18 -9 -18 -20 0 -11 15
-20 34 -20 23 0 8 -23 -49 -73 -68 -59 -80 -79 -64 -108 12 -24 12 -41 -1 -49
-11 -7 -20 -33 -20 -59 0 -25 -19 -103 -42 -173 -29 -90 -38 -157 -30 -225 8
-76 5 -95 -16 -86 -47 17 -134 -94 -144 -185 -11 -89 3 -99 63 -50 38 31 38
31 -1 19 -30 -8 -24 4 24 48 38 34 54 62 40 66 -18 6 -17 17 3 42 41 49 63 40
63 -27 0 -33 9 -60 20 -60 11 0 20 -9 20 -20 0 -11 -18 -20 -39 -20 -21 0 -46
-12 -55 -27 -9 -14 -95 -66 -192 -115 -179 -89 -360 -241 -436 -366 l-36 -60
-24 59 c-13 33 -26 69 -29 81 -23 108 -444 640 -588 741 -103 74 -152 185
-121 278 20 59 15 82 -38 193 -76 157 -119 385 -107 561 5 74 2 135 -8 135
-30 0 -147 -79 -147 -99 0 -11 -33 -34 -73 -51 -40 -17 -150 -106 -245 -198
-187 -183 -322 -265 -550 -333 -78 -24 -223 -73 -322 -109 -99 -37 -211 -78
-250 -92 -115 -41 -376 -153 -515 -223 -92 -45 -383 -302 -406 -357 -25 -60 4
-131 43 -107 10 6 18 2 18 -10 0 -11 -10 -21 -22 -21 -13 0 -18 -16 -13 -36 6
-24 -2 -35 -28 -35 -20 0 -37 9 -37 20 0 11 -15 -2 -34 -30 -18 -27 -40 -54
-48 -59 -36 -25 -191 -618 -203 -770 -1 -22 -9 -45 -18 -51 -8 -6 -19 -74 -24
-152 -4 -79 -13 -151 -20 -162 -7 -11 -23 -86 -35 -167 -13 -82 -39 -197 -58
-258 -28 -87 -34 -164 -29 -367 4 -182 -2 -279 -22 -335 -15 -44 -19 -74 -8
-68 10 7 20 5 21 -4 0 -9 4 -29 7 -46 25 -115 30 -146 19 -122 -46 98 -108
-376 -64 -483 14 -33 214 -35 3812 -35 l3797 0 -7 115 c-4 63 -16 218 -27 343
-11 126 -29 441 -40 700 -19 476 -23 504 -161 1222 -50 258 -161 599 -222 682
-118 160 -756 559 -1376 860 -137 67 -281 151 -320 187 -38 36 -93 71 -122 78
-28 7 -61 33 -72 58 -52 113 -271 392 -336 426 l-70 38 0 186 c0 154 9 207 50
305 30 70 61 202 76 324 25 202 27 206 85 224 190 57 207 77 261 306 51 217
-18 525 -131 585 -24 13 -35 34 -28 52 7 17 -3 68 -20 115 -21 54 -35 174 -41
340 -15 401 -78 595 -205 626 -54 14 -55 16 -26 70 25 47 -115 347 -186 398
-39 28 -252 115 -310 127 -14 3 -44 26 -67 50 -68 73 -134 89 -384 92 -130 1
-238 1 -240 -1z m-19 -196 c36 4 65 -2 65 -12 0 -11 10 -20 21 -20 12 0 35
-13 52 -30 44 -45 85 -36 99 20 15 60 38 62 123 10 36 -22 84 -40 105 -40 22
0 39 -7 38 -15 -7 -40 4 -66 22 -55 11 7 20 4 20 -5 0 -10 52 -14 115 -10 111
8 113 8 70 -24 -25 -18 -53 -28 -63 -22 -30 18 -77 -9 -88 -50 -5 -21 -4 -37
3 -36 53 7 123 -6 114 -21 -22 -36 10 -83 39 -56 18 17 19 28 3 38 -17 11 -17
20 1 38 17 17 35 10 75 -30 41 -40 72 -52 142 -52 142 0 96 -80 -52 -92 -106
-9 -125 -23 -114 -81 9 -43 6 -45 -23 -20 -17 16 -52 34 -77 42 -25 8 -41 21
-36 29 5 8 -24 12 -65 9 -41 -3 -77 -15 -81 -27 -3 -11 -26 -20 -50 -19 -40 0
-40 2 -8 27 19 14 29 32 21 39 -7 7 -2 13 11 13 13 0 23 12 23 27 0 14 -13 26
-30 26 -27 0 -38 -19 -32 -58 1 -8 -7 -15 -18 -15 -11 0 -20 9 -20 19 0 11
-13 15 -30 8 -17 -6 -30 0 -30 13 0 19 -6 20 -29 1 -48 -40 -83 48 -42 110 36
55 41 87 9 55 -13 -13 -35 -18 -51 -12 -19 7 -24 0 -14 -24 11 -28 5 -32 -30
-21 -64 20 -52 -12 37 -102 l79 -80 -59 9 c-34 5 -60 21 -60 37 0 15 -29 45
-64 67 -73 44 -106 35 -40 -11 111 -78 99 -115 -34 -105 -117 8 -171 -12 -77
-30 41 -7 41 -8 -5 -9 -83 -1 -91 -5 -60 -25 18 -11 20 -20 6 -20 -13 0 -39
16 -58 35 -19 19 -42 35 -50 35 -8 0 -21 7 -30 15 -30 31 -44 13 -41 -55 2
-38 -5 -74 -17 -78 -11 -5 -3 -10 18 -10 21 -1 32 -9 24 -17 -17 -17 -132 -21
-132 -4 0 6 -67 10 -148 10 -165 -1 -183 -19 -39 -38 66 -9 99 -6 110 12 11
17 16 10 17 -20 0 -25 10 -45 21 -45 12 0 16 -9 9 -20 -17 -28 -51 -25 -45 4
7 32 -105 54 -152 30 -28 -13 -34 -12 -23 6 11 18 -2 20 -52 9 -38 -8 -113
-15 -168 -14 -55 0 -77 -4 -48 -8 43 -8 50 -18 43 -58 -9 -47 -6 -49 44 -29
75 28 135 27 86 -2 -19 -11 -35 -28 -35 -38 0 -10 16 -13 35 -6 19 8 4 -15
-33 -49 -53 -49 -77 -59 -104 -44 -46 25 -64 24 -48 -1 7 -11 3 -20 -9 -20
-11 0 -21 14 -21 30 0 17 -8 30 -18 30 -10 0 -23 -13 -29 -30 -7 -16 -2 -30 9
-30 11 0 15 -8 9 -18 -6 -10 -29 -13 -51 -8 -37 10 -39 6 -21 -41 41 -108 -53
-213 -130 -145 -43 39 -13 109 34 80 8 -5 20 0 27 12 7 12 -15 20 -58 20 -78
0 -82 4 -101 93 -16 73 54 76 105 4 15 -21 38 -37 53 -37 35 0 93 143 69 172
-11 13 -1 36 27 62 25 22 58 59 74 83 17 24 45 43 64 43 19 0 40 9 47 19 6 11
39 14 73 7 48 -9 60 -6 53 16 -12 37 75 103 119 92 29 -8 27 -12 -12 -25 -85
-27 -5 -43 123 -24 201 30 192 69 -13 55 -37 -2 -53 4 -44 18 7 12 26 22 42
22 16 0 29 9 29 20 0 11 12 20 26 20 14 0 57 27 95 59 38 33 80 60 93 60 29 1
140 101 112 101 -12 0 -43 -18 -71 -40 -59 -46 -94 -51 -97 -15 -1 20 -3 20
-11 0 -6 -14 -23 -25 -38 -25 -14 0 -39 -18 -55 -40 -19 -27 -41 -37 -66 -29
-27 9 -31 7 -12 -6 29 -21 -29 -51 -146 -77 -33 -7 -69 -20 -80 -29 -11 -8
-38 -19 -60 -25 -30 -7 -27 -10 15 -12 61 -2 70 -24 25 -62 -21 -17 -30 -18
-30 -2 0 37 -136 25 -223 -19 -92 -48 -99 -46 -75 16 11 30 33 45 65 45 27 0
74 13 106 30 31 16 73 30 93 30 22 0 31 9 22 23 -9 14 -5 18 9 9 12 -8 47 9
78 37 l55 51 -56 0 c-30 0 -78 -15 -105 -32 -27 -18 -49 -23 -49 -12 0 11 11
26 25 32 14 7 1 9 -29 5 -66 -9 -55 16 26 58 33 17 54 39 48 49 -7 11 30 13
89 6 67 -8 110 -3 131 14 42 35 38 60 -10 60 -114 0 -19 33 105 37 80 2 183
18 230 36 114 44 124 25 35 -62 -86 -83 -85 -84 27 -30 46 22 94 34 107 27 14
-9 17 -5 7 11 -12 18 -5 22 25 12 22 -7 46 -3 53 8 8 12 -3 21 -23 22 -58 1
-109 48 -81 76 17 17 3 23 -61 23 -69 0 -84 7 -84 38 0 34 6 35 75 12 41 -15
104 -23 140 -18z m946 -633 c27 -14 39 -14 39 0 0 35 57 24 100 -19 22 -22 39
-51 38 -65 -1 -20 -3 -20 -11 0 -20 50 -52 25 -38 -30 16 -67 32 -230 17 -177
-8 30 -14 32 -28 10 -12 -20 -17 -9 -18 36 0 44 -13 71 -40 86 -22 12 -40 35
-40 51 0 16 -18 45 -40 64 -65 55 -52 83 21 44z m282 -259 c47 -188 39 -229
-45 -233 -77 -4 -97 17 -97 103 0 46 4 53 19 30 15 -23 19 -18 20 26 0 31 13
60 31 67 27 11 27 17 -2 62 -23 35 -25 45 -6 34 20 -12 19 -7 -2 19 -27 33
-26 36 10 29 30 -5 47 -38 72 -137z m-2238 -394 c-14 -5 -25 -18 -25 -29 0
-11 9 -14 20 -7 11 7 20 -1 20 -18 0 -16 -10 -36 -23 -44 -14 -8 -18 -5 -10 8
8 12 -2 31 -22 43 -33 20 -33 22 0 48 19 15 31 32 28 37 -4 6 3 2 15 -9 16
-14 15 -23 -3 -29z m2576 -606 c61 -230 25 -440 -74 -440 -16 0 -23 -10 -16
-21 7 -12 -6 -27 -29 -33 -55 -14 -54 -63 3 -85 39 -16 40 -19 7 -20 -91 -3
-141 161 -59 193 15 6 27 33 27 61 0 50 1 50 41 14 51 -46 88 -14 107 94 14
76 -18 126 -48 77 -21 -34 -87 -8 -73 29 6 15 -2 33 -18 39 -55 21 -36 147 26
180 67 35 76 27 106 -88z m-168 -290 c-21 -39 -22 -39 -29 6 -11 72 16 126 36
74 8 -22 5 -58 -7 -80z m-1913 -1001 c28 -40 69 -91 93 -115 23 -24 57 -68 76
-97 l33 -53 -73 16 c-90 20 -175 96 -162 145 5 19 2 35 -6 35 -14 0 -121 225
-121 255 0 17 98 -98 160 -186z m-273 -649 c19 -38 26 -87 19 -130 -7 -42 -1
-82 14 -100 17 -21 21 -62 12 -132 -11 -80 -8 -98 12 -86 17 10 15 2 -4 -22
-17 -22 -20 -31 -5 -23 16 10 25 4 25 -16 0 -17 10 -31 22 -31 12 0 17 -11 12
-25 -5 -14 3 -38 17 -55 36 -42 44 -105 14 -111 -15 -3 -18 -2 -8 3 10 6 14
28 8 50 -10 37 -12 38 -48 6 -51 -47 -47 -61 23 -85 33 -12 66 -35 72 -52 7
-17 24 -31 39 -31 28 0 69 -59 69 -98 0 -34 -60 0 -62 35 -1 19 -13 8 -29 -27
-33 -72 -37 -117 -9 -100 11 7 26 -1 32 -19 7 -17 20 -26 30 -20 10 6 18 -3
18 -20 0 -17 -11 -31 -25 -31 -19 -1 -18 -5 2 -18 14 -9 25 -22 23 -30 -2 -7
1 -20 5 -27 5 -8 6 -4 2 10 -3 14 4 25 15 25 11 0 15 9 8 20 -7 11 -4 20 6 20
31 0 40 -71 14 -107 -23 -30 -29 -30 -81 11 -115 91 -144 129 -197 267 l-56
142 -150 -7 c-82 -4 -160 1 -173 11 -43 35 -236 50 -255 20 -26 -41 -22 -53
22 -67 22 -7 40 -22 40 -34 0 -12 14 -32 31 -44 17 -13 33 -45 36 -72 3 -28
16 -81 28 -120 13 -38 33 -108 45 -155 12 -46 41 -105 66 -130 24 -25 47 -67
51 -95 4 -27 14 -63 23 -80 8 -16 11 -57 6 -90 -5 -33 -9 -71 -11 -85 -1 -14
-8 -25 -16 -25 -8 0 -15 -31 -15 -70 0 -38 8 -65 18 -59 10 6 18 -3 18 -20 0
-17 -10 -31 -21 -31 -12 0 -17 -8 -11 -17 6 -9 1 -52 -11 -94 -16 -59 -15 -80
3 -86 14 -4 17 -13 5 -20 -27 -18 -6 -163 24 -163 26 0 28 -123 3 -225 -8 -34
-5 -55 9 -55 12 0 19 -28 15 -65 -3 -36 -16 -63 -29 -61 -14 3 -19 -11 -13
-35 13 -48 45 -51 48 -4 2 19 9 8 17 -25 l15 -60 20 48 c16 40 21 43 32 16 7
-18 2 -39 -11 -47 -15 -9 -9 -19 16 -29 29 -11 31 -16 7 -17 -40 -1 -36 -60 8
-128 43 -65 43 -86 -1 -112 -28 -16 -30 -24 -8 -38 20 -13 22 -42 11 -115 -9
-54 -16 -116 -16 -138 0 -22 -8 -46 -18 -53 -25 -16 3 -61 28 -46 10 6 24 -16
31 -49 6 -34 20 -56 31 -50 10 7 14 25 8 40 -6 15 -2 28 8 28 10 0 24 -32 32
-72 8 -42 19 -62 28 -49 8 14 25 -15 40 -69 17 -61 31 -84 42 -67 43 70 82
-400 40 -479 -44 -82 -121 -25 -124 92 -3 71 -3 71 -15 16 -12 -55 -63 -100
-63 -56 0 11 -18 16 -40 10 -22 -6 -39 -21 -38 -33 6 -50 -3 -73 -30 -73 -36
0 -81 54 -53 63 12 4 2 19 -22 34 -38 24 -41 23 -30 -6 11 -30 9 -30 -32 -2
-62 43 -95 39 -97 -14 0 -25 -6 -34 -11 -21 -9 23 -98 21 -221 -5 -24 -5 -50
0 -57 12 -7 12 -25 17 -39 12 -15 -6 -31 8 -38 33 -10 36 -15 39 -31 15 -10
-16 -14 -36 -9 -45 10 -16 -14 -19 -182 -24 -44 -1 -85 -8 -91 -16 -5 -8 -40
-19 -77 -26 l-67 -12 17 66 c22 84 23 412 2 556 -9 61 -20 156 -24 211 -54
724 -53 718 -97 720 -13 0 -19 14 -13 30 14 41 5 380 -10 396 -7 7 -25 -3 -40
-23 -31 -43 -92 27 -119 136 -8 33 -24 72 -37 87 -13 15 -33 56 -46 90 -81
217 -189 453 -300 655 -132 240 -164 333 -77 228 l49 -60 1 50 c4 126 17 181
59 240 57 80 76 60 84 -85 7 -127 9 -130 50 -80 16 19 23 24 16 10 -12 -24 -4
-28 55 -33 34 -3 20 133 -17 154 -22 13 -23 24 -3 60 14 24 27 47 28 51 8 15
87 -21 87 -40 0 -11 13 -33 30 -50 29 -29 28 32 -1 128 -4 14 9 25 32 25 21 0
39 -12 39 -28 0 -15 13 -38 28 -50 15 -13 23 -41 18 -63 -7 -27 -1 -39 22 -39
28 0 40 43 30 113 -1 7 6 18 15 25 10 6 42 45 72 85 46 62 162 98 127 40 -4
-7 5 -24 20 -38 22 -21 29 -17 39 22 15 61 75 50 106 -19 12 -26 36 -48 53
-48 40 0 38 24 -7 72 -48 51 -68 148 -30 148 39 0 99 -65 147 -159 43 -85 79
-101 120 -51 17 21 18 30 2 30 -12 0 -22 14 -22 31 0 16 -13 35 -30 42 -53 20
-36 121 33 187 89 85 97 50 13 -59 l-38 -49 73 -29 c59 -23 76 -24 89 -3 9 14
30 20 48 14 22 -9 32 -2 32 22 0 19 14 60 30 91 17 32 30 72 30 90 0 20 7 25
15 12 8 -11 26 -19 40 -17 14 2 39 4 55 6 32 2 42 54 13 65 -10 4 1 25 23 47
22 22 34 30 27 17 -7 -13 -3 -27 9 -31 14 -5 23 -59 22 -142 0 -74 9 -134 19
-134 11 0 14 19 6 43 -8 26 -6 37 7 30 35 -22 48 54 13 80 -32 23 -25 107 8
107 22 0 68 -136 54 -159 -6 -10 -3 -24 9 -31 11 -7 21 -1 21 14 1 14 10 8 19
-14 12 -29 18 -8 19 75 1 91 -5 115 -30 115 -17 0 -26 9 -19 20 7 12 21 16 30
10 10 -6 13 9 6 34 -21 85 12 356 43 356 5 0 22 -27 38 -60z m2229 -301 c14
-22 20 -49 14 -59 -22 -35 69 -103 116 -88 38 12 40 10 18 -17 -19 -23 -20
-35 -4 -45 13 -8 34 1 47 19 25 35 85 -23 119 -114 7 -19 26 -35 42 -35 17 0
28 -17 26 -41 -2 -29 -13 -39 -38 -32 -21 5 -36 -2 -36 -16 0 -16 18 -22 46
-17 29 6 57 -4 75 -26 18 -22 20 -30 4 -21 -44 27 -27 -8 35 -70 34 -34 60
-81 60 -109 0 -63 -16 -61 -41 5 -11 29 -26 47 -32 40 -7 -6 2 -34 20 -62 36
-55 43 -122 14 -140 -10 -7 -11 -36 -1 -70 9 -32 11 -63 5 -69 -6 -7 -2 -12 9
-12 79 0 109 342 39 448 -22 33 -30 68 -21 89 8 18 12 44 10 58 -2 14 4 25 14
25 23 0 135 -126 129 -145 -3 -8 18 -15 46 -15 27 0 54 -13 60 -30 32 -103 27
-98 69 -60 38 34 40 33 59 -17 11 -29 33 -53 49 -53 16 0 33 -16 37 -35 7 -27
14 -23 32 22 26 63 62 62 95 -5 13 -24 31 -44 40 -43 10 1 21 -29 24 -66 5
-56 13 -67 44 -59 23 6 34 24 30 48 -10 49 43 50 59 1 6 -20 34 -47 62 -60 28
-12 55 -36 62 -53 10 -27 15 -27 38 4 29 40 149 -60 149 -125 0 -17 9 -26 20
-19 11 7 34 -2 52 -19 17 -17 44 -31 59 -31 16 0 29 -18 29 -40 0 -44 31 -54
47 -15 5 14 11 -18 11 -70 1 -53 11 -95 23 -95 12 0 16 8 10 18 -6 10 2 23 18
29 17 6 25 1 20 -13 -19 -50 -23 -154 -6 -154 9 0 17 14 17 30 0 17 9 30 21
30 30 0 50 -66 23 -75 -13 -5 -24 -26 -24 -48 0 -22 9 -34 21 -26 37 23 78
-30 60 -77 -11 -31 -5 -60 22 -97 20 -29 32 -68 25 -85 -17 -46 -48 -40 -48 9
0 23 -8 36 -18 30 -10 -6 -22 -4 -27 4 -5 8 -5 3 -2 -12 4 -14 7 -38 7 -53 0
-14 27 -36 60 -47 55 -19 59 -27 49 -92 -7 -45 0 -94 19 -133 30 -60 30 -61
-34 -89 -63 -27 -49 -37 41 -30 25 2 45 -6 45 -18 0 -11 -10 -21 -22 -21 -16
0 -15 -10 3 -31 20 -24 20 -36 1 -55 -18 -18 -27 -18 -38 0 -10 16 -25 18 -45
5 -19 -12 -21 -18 -4 -19 14 0 25 -13 25 -30 0 -36 40 -41 41 -5 0 14 9 10 20
-10 11 -19 20 -40 18 -46 -1 -7 15 -26 35 -42 26 -21 29 -32 11 -40 -14 -6
-25 -45 -25 -87 0 -43 -13 -90 -29 -107 -26 -26 -26 -32 0 -53 24 -20 29 -18
30 13 0 35 1 35 21 2 15 -27 10 -50 -22 -95 l-43 -60 42 0 c35 0 39 -6 22 -38
-15 -28 -13 -44 9 -62 33 -27 40 -91 13 -108 -22 -13 -24 -109 -3 -122 15 -9
6 -330 -10 -346 -5 -5 -18 14 -29 43 -11 29 -26 53 -33 53 -21 0 13 -108 46
-144 17 -19 26 -48 19 -65 -6 -16 -3 -35 7 -41 10 -6 13 -40 6 -76 -12 -58
-10 -61 21 -37 55 46 42 -41 -16 -104 -68 -73 -251 -69 -251 5 0 95 -340 89
-527 -8 -82 -43 -127 -41 -90 3 21 26 21 35 2 42 -14 5 -25 17 -25 28 0 11 10
13 22 6 14 -9 19 0 15 24 -12 59 -65 44 -77 -23 -11 -64 -192 -96 -254 -46
-18 14 -28 5 -38 -33 -11 -47 -20 -52 -73 -40 -33 7 -71 15 -85 17 -14 2 -41
17 -60 32 -30 25 -38 24 -62 -10 -22 -29 -28 -31 -28 -7 0 36 -84 36 -96 0
-15 -45 -84 -26 -79 22 8 76 -76 73 -92 -4 -11 -56 -53 -88 -53 -40 0 12 -9
16 -21 8 -11 -7 -34 -2 -50 12 -23 19 -29 19 -29 -1 0 -13 -12 -20 -28 -14
-15 6 -37 1 -49 -11 -15 -15 -29 -15 -50 2 -16 13 -63 25 -106 27 -42 1 -84
12 -93 24 -9 12 -10 0 -2 -28 12 -44 10 -47 -18 -23 -18 14 -42 21 -53 13 -34
-21 -49 51 -25 116 29 76 11 106 -38 63 -20 -19 -33 -42 -27 -50 5 -9 0 -22
-12 -30 -12 -7 -19 -39 -16 -70 8 -72 -8 -74 -89 -10 -35 28 -54 51 -42 51 13
0 21 34 20 80 -1 51 -11 80 -28 80 -15 0 -20 -10 -12 -23 10 -16 4 -20 -19
-11 -26 10 -33 0 -33 -48 0 -43 7 -56 25 -45 17 10 16 3 -3 -20 -24 -29 -23
-39 8 -73 20 -22 31 -45 25 -51 -15 -16 -179 29 -215 60 -16 13 -66 26 -109
29 -44 2 -87 15 -95 28 -9 14 -16 0 -16 -36 l-1 -60 -37 48 -37 49 -23 -44
c-37 -69 -59 -50 -47 40 8 61 5 79 -12 69 -13 -8 -18 -24 -12 -34 7 -11 1 -33
-12 -49 -14 -17 -19 -36 -12 -43 7 -7 2 -25 -11 -41 -19 -23 -27 -20 -49 19
-14 25 -26 35 -26 21 -1 -14 -10 -25 -21 -25 -11 0 -19 25 -18 55 0 30 6 44
11 30 23 -56 47 -19 47 70 1 127 19 190 52 177 15 -6 32 -1 39 9 6 11 21 14
33 6 14 -8 18 5 12 39 -6 29 -3 48 7 42 9 -6 17 12 17 39 0 33 14 55 41 63 24
8 38 25 32 41 -6 14 -1 30 10 33 12 4 21 58 20 122 -1 68 7 114 20 114 12 0
16 12 11 28 -6 15 3 48 21 73 19 27 22 39 6 30 -14 -9 -9 9 11 39 34 52 85 19
54 -35 -4 -8 1 -15 14 -15 14 0 15 -12 3 -35 -23 -45 -7 -157 28 -186 15 -12
21 -36 14 -54 -7 -20 -4 -27 11 -18 14 9 19 53 13 119 -7 71 -3 95 10 75 47
-74 42 12 -9 143 -31 79 -48 147 -38 150 62 22 78 47 43 68 -43 25 -27 61 19
44 25 -10 30 -5 20 20 -7 18 -4 38 6 44 18 11 12 125 -8 145 -6 5 12 53 39
106 29 58 41 102 29 109 -11 7 -20 21 -20 32 0 11 10 14 23 6 16 -10 18 -5 6
14 -29 46 -21 87 21 109 30 15 40 41 40 100 0 43 8 90 16 104 27 42 54 28 54
-28 0 -85 18 -45 28 63 5 55 19 102 30 106 12 4 22 16 22 28 0 11 20 47 44 81
24 34 45 89 47 123 2 34 5 68 6 75 2 8 36 34 76 59 68 42 70 46 31 60 -25 10
-40 32 -39 55 2 21 13 35 25 30 31 -12 101 190 75 216 -23 23 54 154 106 183
16 9 29 46 29 84 0 37 9 73 20 80 11 7 20 34 20 61 0 27 8 49 17 49 47 0 108
80 83 110 -46 55 -300 13 -300 -50 0 -21 -9 -43 -20 -50 -41 -25 -23 -73 19
-51 79 43 77 22 -29 -219 -36 -82 -77 -181 -92 -220 -28 -69 -127 -275 -349
-720 -89 -178 -132 -299 -191 -533 -110 -441 -226 -776 -345 -997 -36 -66 -82
-160 -103 -210 -113 -265 -346 -588 -407 -565 -92 35 -95 98 -11 280 26 58 70
159 98 225 27 65 69 153 92 194 24 42 82 145 130 230 49 85 88 158 88 163 0 5
57 111 127 236 267 478 329 616 354 787 45 315 130 593 266 870 65 132 174
300 194 300 42 0 84 124 59 171 -14 25 -18 57 -9 72 12 21 9 22 -12 3 -21 -20
-31 -16 -49 20 -13 24 -34 42 -47 39 -25 -6 -32 59 -8 83 8 9 16 21 17 29 1 7
12 38 25 69 13 31 23 65 23 76 0 30 97 214 120 228 11 7 20 30 20 51 0 51 44
50 76 -2z m-2500 -604 c4 -35 -3 -55 -20 -56 -17 0 -16 -6 6 -19 22 -13 29
-36 23 -70 -5 -27 -1 -61 9 -75 10 -14 21 -56 23 -95 3 -70 3 -70 -24 -20 -14
28 -38 47 -52 44 -16 -3 -21 6 -14 25 7 18 1 31 -13 31 -13 0 -34 23 -47 50
-13 28 -15 50 -4 50 11 0 10 16 -2 39 -12 21 -21 67 -21 101 0 89 126 84 136
-5z m184 -36 c0 -10 9 -19 19 -19 11 0 14 16 7 35 -12 31 -9 32 20 8 40 -33
45 -83 9 -83 -20 -1 -20 -4 0 -16 13 -9 27 -49 30 -90 3 -41 13 -74 23 -74 23
0 -2 -243 -36 -341 -22 -65 -23 -96 0 -183 14 -59 44 -182 67 -276 22 -93 71
-287 108 -430 189 -728 281 -1244 305 -1703 24 -467 -15 -437 -175 133 -11 39
-32 120 -47 180 -14 61 -40 160 -57 220 -17 61 -53 205 -81 320 -27 116 -68
287 -91 380 -110 459 -143 802 -103 1070 20 136 -17 505 -78 779 -11 48 -10
89 1 102 10 13 12 30 4 39 -8 8 5 5 30 -8 25 -13 45 -32 45 -43z m598 -72
c-20 -23 -19 -28 3 -23 16 3 31 -13 35 -40 4 -26 31 -62 61 -80 32 -20 52 -48
47 -68 -4 -20 16 -48 50 -69 59 -37 108 -85 230 -224 105 -119 116 -146 26
-63 -85 79 -75 45 34 -116 58 -84 69 -179 21 -169 -30 6 -33 -28 -5 -45 11 -7
41 11 67 39 45 48 88 71 65 34 -6 -9 11 -38 38 -63 l49 -46 -41 -57 c-49 -68
-83 -72 -137 -13 -45 48 -43 48 -75 -27 -17 -38 -17 -58 0 -75 16 -16 13 -22
-11 -22 -23 0 -30 -10 -21 -33 11 -30 16 -29 45 7 36 44 136 87 112 48 -23
-38 28 -24 64 18 40 48 65 51 65 10 0 -16 9 -30 20 -30 11 0 17 20 15 45 -3
26 5 43 19 40 14 -2 20 8 14 24 -13 34 116 171 161 171 39 0 40 -28 1 -60 -16
-14 -30 -51 -30 -84 0 -41 -7 -54 -25 -43 -20 12 -20 8 0 -16 13 -17 20 -61
15 -102 -10 -74 32 -186 60 -160 8 8 4 -6 -9 -32 -14 -26 -41 -52 -60 -57 -24
-6 -33 -27 -31 -68 6 -106 -43 -141 -59 -42 -8 46 -23 84 -33 84 -10 0 -18 21
-18 46 0 26 -12 63 -27 83 -23 32 -26 4 -22 -193 6 -270 -44 -506 -76 -361 -4
19 -15 -3 -23 -50 -16 -89 -24 -96 -70 -67 -17 11 -21 28 -11 45 13 21 8 20
-19 -2 -34 -28 -34 -30 1 -58 30 -23 31 -26 4 -17 -18 6 -50 -1 -70 -17 -20
-15 -53 -28 -72 -28 -19 -1 -35 -15 -35 -32 0 -19 9 -26 23 -17 14 8 18 5 10
-8 -8 -11 -5 -27 7 -34 11 -7 20 -39 20 -72 0 -35 -8 -55 -20 -48 -26 16 -25
-2 0 -51 17 -31 15 -36 -10 -26 -30 11 -40 -28 -31 -118 2 -19 -7 -35 -20 -35
-24 0 -22 138 8 790 5 99 4 149 -1 110 -9 -72 -40 -126 -64 -111 -7 4 -16 -43
-18 -105 -3 -62 -14 -122 -24 -132 -27 -27 -25 -78 2 -61 15 9 18 1 11 -23
-25 -80 -34 -308 -12 -308 12 0 15 11 7 25 -11 20 -8 20 13 0 20 -19 21 -31 4
-48 -13 -13 -18 -48 -11 -83 11 -55 8 -59 -33 -48 -39 10 -44 5 -36 -36 6 -34
-2 -50 -28 -57 -32 -8 -37 3 -37 88 0 53 -9 102 -20 109 -11 7 -20 31 -20 54
0 32 -6 36 -27 19 -37 -31 -107 95 -80 144 18 32 -11 321 -37 364 -6 11 -5 37
3 59 9 25 1 61 -22 100 -20 33 -37 84 -37 114 0 29 -9 59 -20 66 -11 7 -20 33
-20 57 0 25 -11 57 -25 72 -21 22 -13 24 44 13 64 -12 66 -10 31 16 -22 16
-46 24 -55 19 -8 -5 -16 2 -18 17 -6 47 -11 65 -33 119 -25 61 -61 255 -67
357 -2 39 -11 79 -19 90 -15 20 -18 33 -18 71 0 12 -8 16 -18 10 -10 -6 -15
14 -10 44 5 30 13 100 19 155 9 87 69 204 69 134 0 -13 -10 -24 -21 -24 -12 0
-16 -8 -10 -18 13 -22 91 -5 91 20 0 35 51 7 114 -61 35 -38 70 -64 77 -57 7
7 65 -42 131 -109 116 -119 149 -195 86 -195 -27 0 -28 -5 -8 -30 13 -16 32
-25 41 -20 8 6 22 -19 30 -55 7 -36 22 -76 32 -88 33 -41 45 -274 14 -256 -15
9 -13 -1 6 -23 21 -24 31 -62 26 -103 -5 -36 0 -65 9 -65 10 0 23 38 29 85 6
47 19 144 29 215 18 139 6 212 -61 360 -22 50 -55 134 -73 187 -35 106 -184
213 -296 213 -77 0 -135 57 -99 98 14 18 38 84 51 147 23 106 28 113 65 94 32
-18 35 -27 15 -52z m1480 -20 c-32 -38 -58 -34 -58 10 0 51 21 67 53 40 21
-17 22 -29 5 -50z m-4078 -190 c0 -13 6 -18 13 -10 17 17 94 -98 124 -185 30
-90 28 -104 -7 -40 -30 55 -102 88 -121 56 -6 -10 6 -18 27 -18 22 0 50 -13
64 -30 14 -16 18 -30 10 -30 -9 0 17 -26 58 -58 45 -36 63 -62 47 -67 -17 -7
-11 -25 23 -61 31 -34 43 -66 36 -94 -7 -26 0 -47 18 -53 16 -7 28 -39 28 -78
0 -37 9 -72 20 -79 11 -7 20 2 20 20 0 18 8 27 18 21 24 -14 41 -111 19 -111
-9 0 -17 11 -17 23 0 13 -6 18 -13 11 -7 -7 3 -45 22 -86 19 -40 35 -103 35
-140 0 -38 8 -68 18 -68 10 0 18 -18 18 -40 0 -44 -31 -54 -47 -15 -5 14 -11
5 -11 -19 -1 -25 15 -54 36 -65 29 -16 37 -39 34 -105 -4 -64 5 -93 35 -117
40 -33 32 -82 -13 -71 -13 3 -17 2 -9 -3 8 -5 15 -19 15 -33 0 -35 47 -132 65
-132 8 0 15 -25 16 -55 1 -80 54 -289 76 -303 11 -7 25 -102 32 -212 7 -110
22 -209 33 -220 14 -14 16 -7 6 20 -9 24 -7 33 4 23 10 -9 19 -56 20 -105 2
-48 15 -102 29 -119 22 -27 22 -35 -2 -49 -15 -10 -22 -24 -14 -32 7 -7 4 -31
-8 -53 -15 -29 -15 -44 3 -55 17 -11 18 -19 2 -29 -15 -9 -14 -29 6 -67 34
-67 10 -144 -46 -144 -75 0 -242 47 -243 68 -1 12 -10 4 -19 -18 -15 -36 -17
-35 -19 13 -1 50 -81 102 -81 53 0 -12 -13 -10 -30 4 -17 14 -37 20 -44 13 -7
-8 4 -26 24 -41 41 -29 -6 -72 -79 -72 -17 0 -31 -9 -31 -20 0 -12 -29 -9 -70
9 -66 27 -70 27 -70 -10 0 -45 -21 -50 -59 -14 -21 20 -28 20 -35 -1 -8 -19
-17 -20 -38 -3 -19 17 -44 17 -86 3 -44 -16 -84 -14 -153 7 -51 16 -101 24
-110 18 -10 -6 -31 17 -48 49 -35 68 -43 312 -11 332 11 7 20 21 20 32 0 11
-8 15 -18 9 -11 -6 -31 1 -46 16 -15 14 -40 31 -55 36 -20 7 -22 14 -7 24 13
7 37 -1 54 -18 29 -29 32 -29 25 4 -14 75 -36 104 -68 92 -21 -8 -27 -4 -17
12 8 13 2 23 -15 23 -34 0 -60 54 -34 70 10 6 24 1 31 -11 19 -30 70 16 70 63
0 26 -10 33 -35 26 -24 -8 -19 2 15 32 49 43 49 43 5 34 -25 -6 -45 -2 -45 8
0 10 14 18 30 18 36 0 39 23 6 56 -19 19 -18 24 4 24 21 0 22 6 6 22 -17 17
-17 36 -1 71 16 35 16 54 -1 71 -15 15 -16 34 -2 61 12 21 16 51 10 67 -15 39
8 35 38 -6 22 -30 25 -28 19 20 -3 30 3 49 13 43 29 -18 44 45 29 125 -11 54
-19 66 -32 45 -13 -20 -19 -5 -20 51 -1 44 -5 96 -9 115 -10 53 29 178 51 164
10 -6 19 3 19 20 0 36 19 39 84 13 101 -41 129 -48 191 -54 36 -3 65 3 65 13
0 11 -14 19 -31 19 -17 0 -53 25 -80 55 -45 51 -51 52 -76 21 -41 -53 -123 8
-91 68 16 30 16 37 -1 27 -17 -11 -20 14 -13 90 10 107 48 175 67 121 8 -20
17 -15 35 19 21 38 20 52 -3 74 -20 21 -24 55 -15 122 7 51 15 129 17 173 5
97 28 154 55 137 13 -8 13 -17 -1 -25 -15 -9 -13 -37 5 -90 35 -101 55 -48 34
87 -19 119 -23 105 36 111 32 3 50 -7 57 -32 5 -21 17 -33 26 -27 22 13 79
-71 80 -120 1 -38 3 -38 20 4 11 29 28 40 48 33 42 -16 39 -3 -10 54 -23 26
-47 73 -53 104 -9 42 -16 50 -29 31 -12 -18 -14 -8 -6 25 8 37 3 56 -18 64
-37 14 -103 134 -74 134 12 0 21 -10 21 -22 0 -31 84 -95 112 -84 13 5 19 26
13 47 -11 43 -45 54 -45 15 0 -18 -6 -18 -23 -1 -12 12 -17 36 -10 54 14 36
53 42 53 8z m3799 -258 c-12 -23 -70 -72 -130 -111 -60 -38 -109 -78 -109 -90
0 -11 -8 -15 -19 -9 -10 6 -70 -20 -135 -59 -64 -38 -123 -70 -131 -70 -30 0
-14 42 20 54 19 7 40 18 45 25 6 6 46 30 90 54 44 24 93 69 108 100 31 62 58
86 98 87 16 0 20 -10 12 -25 -8 -14 10 -3 39 23 29 27 53 41 53 31 0 -9 11 -6
24 7 38 38 59 28 35 -17z m-3179 -1039 c17 -32 15 -43 -11 -53 -33 -13 -68 22
-69 68 0 40 56 29 80 -15z m2556 -604 c28 -28 32 -96 5 -96 -10 0 -21 12 -25
27 -4 18 -20 23 -43 14 -35 -12 -35 -16 -5 -46 43 -44 40 -59 -11 -51 -64 9
-90 62 -61 124 25 56 98 70 140 28z m-3868 -1004 c20 -83 -28 -154 -55 -82 -7
17 -2 30 10 30 12 0 18 22 12 50 -12 64 17 66 33 2z m172 -92 c0 -58 -8 -80
-30 -80 -16 0 -30 13 -30 28 0 16 -11 32 -24 37 -15 5 -8 23 20 51 59 59 64
57 64 -36z"/>
<path d="M4152 9053 c7 -20 -4 -26 -41 -22 -28 3 -51 -4 -51 -15 0 -11 12 -16
28 -10 15 6 36 2 47 -9 21 -21 105 18 105 49 0 9 -8 11 -19 5 -10 -6 -24 -3
-31 9 -19 30 -50 24 -38 -7z"/>
<path d="M3495 8959 c-41 -22 -75 -43 -75 -48 0 -13 149 36 189 63 67 44 -24
32 -114 -15z"/>
<path d="M3780 8862 l-50 -14 50 -14 c74 -20 197 -17 160 4 -52 30 -108 38
-160 24z"/>
<path d="M2133 4565 c-24 -39 38 -81 76 -53 21 15 32 34 24 42 -21 20 -90 28
-100 11z"/>
<path d="M3280 4539 c-23 -43 -10 -119 21 -119 9 0 15 31 12 70 -3 38 4 73 16
78 13 5 12 9 -3 10 -14 1 -34 -16 -46 -39z"/>
<path d="M1764 4378 c6 -15 4 -46 -4 -68 -19 -50 11 -110 53 -110 22 0 28 12
21 40 -6 22 -2 45 8 51 24 15 23 89 0 89 -10 0 -35 6 -54 13 -25 10 -32 6 -24
-15z"/>
<path d="M2174 4373 c-8 -20 -13 -56 -13 -80 2 -41 3 -41 17 -4 15 39 16 39
38 0 21 -37 22 -37 19 6 -2 25 -10 45 -18 45 -8 0 -17 16 -21 35 -7 33 -8 32
-22 -2z"/>
<path d="M1367 4250 c5 -22 15 -73 22 -113 14 -87 64 -140 83 -89 7 17 22 26
35 19 13 -7 3 7 -22 31 -49 48 -58 101 -22 137 17 17 12 20 -22 11 -28 -7 -53
-1 -64 16 -15 21 -17 18 -10 -12z"/>
<path d="M1601 4255 c0 -19 -10 -35 -21 -35 -31 0 -23 -60 9 -73 36 -13 -20
-105 -64 -106 -44 -1 -27 -32 54 -100 78 -65 89 -108 27 -97 -17 4 -34 -10
-37 -29 -3 -21 3 -30 16 -22 14 9 17 1 9 -21 -8 -19 -5 -29 5 -23 9 6 23 0 29
-14 10 -20 14 -20 24 0 20 43 48 27 48 -26 0 -31 -8 -46 -21 -38 -11 7 -34 2
-50 -12 -16 -13 -29 -15 -29 -5 0 11 -13 19 -28 19 -16 0 -24 -12 -18 -26 6
-15 23 -27 38 -27 16 0 28 -20 28 -46 0 -26 14 -64 31 -85 18 -22 26 -28 19
-14 -8 16 2 25 28 25 28 0 37 -9 29 -30 -6 -16 -1 -30 11 -30 27 0 29 -130 2
-180 -15 -27 -12 -45 10 -67 17 -17 39 -51 49 -77 34 -86 22 221 -19 484 -59
371 -70 426 -97 475 -14 25 -19 56 -11 68 7 12 5 27 -5 34 -10 7 -28 36 -41
63 -17 37 -24 41 -25 15z"/>
<path d="M1844 4056 c7 -115 53 -150 76 -56 17 69 2 117 -44 142 -36 19 -38
14 -32 -86z"/>
<path d="M2159 3584 c-36 -43 -78 -158 -64 -172 29 -29 88 34 79 84 -6 34 1
61 21 75 18 13 23 28 12 35 -11 7 -33 -3 -48 -22z"/>
<path d="M2140 3293 c0 -16 -11 -33 -24 -38 -13 -4 -18 -22 -11 -40 17 -44 95
-22 95 27 0 21 0 45 1 53 1 8 -13 18 -30 21 -17 4 -31 -6 -31 -23z"/>
<path d="M2390 3278 c-31 -32 -34 -43 -12 -56 19 -13 21 -27 5 -56 -15 -28
-13 -64 7 -128 26 -85 27 -86 29 -23 1 44 11 65 31 65 17 0 30 10 30 22 0 12
-15 17 -32 10 -26 -10 -30 -3 -21 31 6 24 2 59 -8 79 -22 41 16 78 40 39 12
-18 18 -17 27 5 24 64 -37 71 -96 12z"/>
<path d="M2800 2870 c0 -16 8 -30 19 -30 10 0 22 -16 27 -35 5 -19 10 -6 12
30 1 45 -7 65 -28 65 -16 0 -30 -13 -30 -30z"/>
<path d="M2145 2635 c0 -99 7 -170 17 -164 10 6 12 35 5 63 -10 40 -7 48 13
36 20 -12 22 -3 10 42 -9 32 -22 90 -30 128 -9 49 -14 17 -15 -105z"/>
<path d="M2794 2640 c-18 -22 -34 -53 -34 -69 0 -16 -9 -34 -20 -41 -11 -7
-20 -23 -20 -35 0 -13 23 8 50 45 28 37 50 79 50 92 0 14 11 29 25 35 14 5 16
11 4 11 -11 1 -36 -16 -55 -38z"/>
<path d="M2660 2310 c0 -16 -11 -30 -25 -31 -14 0 -8 -10 12 -22 28 -16 42
-15 52 1 8 13 30 17 51 9 25 -9 32 -7 22 10 -8 12 -27 23 -43 23 -16 0 -29 9
-29 20 0 11 -9 20 -20 20 -11 0 -20 -13 -20 -30z"/>
<path d="M2240 2262 c0 -46 -31 -57 -46 -17 -5 14 -7 -14 -5 -61 2 -48 -4 -91
-13 -96 -9 -6 -16 -20 -16 -32 0 -13 11 -12 30 4 17 14 30 34 30 45 0 11 13
31 29 43 37 29 49 136 16 147 -15 5 -25 -9 -25 -33z"/>
<path d="M2796 1907 c-11 -55 6 -147 27 -147 9 0 13 38 7 84 -12 95 -23 116
-34 63z"/>
<path d="M3100 1720 c-13 -24 -17 -58 -9 -77 11 -25 18 -16 30 37 19 84 11 99
-21 40z"/>
<path d="M6214 4308 c-14 -14 25 -88 62 -118 14 -11 26 -43 27 -70 1 -28 9
-68 17 -90 9 -22 21 -56 28 -75 6 -20 34 -44 63 -55 50 -19 52 -26 48 -165 -4
-173 18 -412 42 -457 10 -18 13 -37 8 -43 -6 -5 22 -34 61 -64 l71 -54 -1 167
c-1 167 10 341 25 396 5 17 5 23 0 15 -5 -8 -25 5 -46 30 -47 56 -83 18 -65
-69 12 -60 -21 -79 -42 -24 -19 48 -14 138 8 160 13 13 13 43 0 89 -11 38 -21
109 -22 159 -1 82 -3 85 -18 33 -10 -31 -13 -69 -7 -85 7 -17 -1 -28 -20 -28
-40 0 -61 108 -48 241 10 109 -4 120 -67 57 -23 -23 -44 -38 -46 -35 -3 4 -19
27 -35 52 -17 25 -36 39 -43 33z m350 -868 c-33 -57 -35 -58 -53 -18 -13 30
-11 46 10 59 60 38 78 21 43 -41z"/>
<path d="M5761 4092 c-1 -31 68 -171 84 -171 8 -1 15 13 15 29 0 17 -9 30 -20
30 -11 0 -20 12 -20 26 0 30 -58 114 -59 86z"/>
<path d="M6890 4075 c-5 -14 -18 -68 -30 -121 -11 -53 -35 -118 -53 -145 -17
-27 -26 -49 -19 -49 8 0 5 -16 -5 -35 -16 -29 -10 -36 29 -38 35 -2 51 9 57
40 20 94 75 319 85 345 6 17 -3 28 -22 28 -19 0 -37 -11 -42 -25z"/>
<path d="M6710 4013 c-28 -32 -70 -130 -69 -159 1 -13 10 -6 19 16 15 35 17
33 19 -16 0 -33 -7 -51 -19 -44 -11 7 -20 3 -20 -9 0 -67 61 -1 69 76 2 18 11
58 20 89 18 63 11 81 -19 47z"/>
<path d="M6074 3915 c-5 -14 0 -41 10 -61 10 -19 19 -107 20 -195 2 -119 9
-159 29 -159 15 0 27 18 27 40 0 22 9 40 20 40 29 0 24 61 -9 126 -16 30 -24
70 -17 88 8 19 -2 43 -25 59 -20 15 -26 27 -13 27 13 0 24 14 24 30 0 36 -53
40 -66 5z"/>
<path d="M6260 3655 c0 -16 7 -35 15 -43 8 -8 26 -57 39 -109 l24 -93 -12 109
c-10 98 -66 213 -66 136z"/>
<path d="M6805 3620 c-14 -22 -25 -57 -25 -78 0 -21 -11 -42 -25 -47 -15 -5
-26 -45 -27 -97 -2 -120 -41 -439 -60 -488 -14 -35 -12 -37 18 -13 18 15 39
60 46 100 6 40 24 118 39 173 14 55 32 156 40 225 7 69 21 130 31 136 22 14
24 129 3 129 -9 0 -27 -18 -40 -40z"/>
<path d="M7094 3609 c-15 -46 -57 -114 -81 -131 -9 -7 -13 -38 -9 -70 l8 -58
27 60 c71 158 83 194 76 215 -4 13 -14 6 -21 -16z"/>
<path d="M6132 3450 c-33 -77 -33 -136 0 -108 17 14 29 16 27 6 -16 -85 4
-168 41 -168 22 0 40 -10 40 -21 0 -12 8 -16 18 -10 25 15 4 87 -50 173 -24
39 -48 93 -51 120 -7 45 -8 46 -25 8z"/>
<path d="M6942 3306 c-1 -24 -12 -50 -24 -57 -31 -20 -98 -174 -84 -195 16
-26 130 226 119 264 -5 21 -9 17 -11 -12z"/>
<path d="M5251 3231 c-61 -27 -84 -99 -47 -145 15 -18 29 -15 61 14 40 37 87
36 64 -1 -6 -11 7 -19 30 -19 22 0 41 -10 41 -22 0 -27 92 -7 129 27 19 19 20
34 3 65 -12 22 -23 43 -25 47 -2 3 -22 -12 -45 -35 -44 -44 -102 -56 -102 -22
0 11 18 36 40 55 79 67 -22 92 -149 36z"/>
<path d="M7045 3079 c-25 -10 -51 -32 -58 -49 -21 -56 4 -51 63 10 62 65 62
66 -5 39z"/>
<path d="M6794 3000 c-6 -23 0 -40 13 -41 13 0 7 -9 -12 -21 -19 -11 -35 -38
-35 -59 0 -21 -12 -39 -26 -39 -46 0 -96 -182 -92 -337 2 -89 12 -143 26 -143
12 0 9 -9 -8 -20 -17 -11 -20 -20 -7 -20 13 0 40 -6 60 -13 21 -7 31 -7 23 2
-7 8 -5 36 4 62 15 38 11 49 -21 59 -21 7 -39 26 -39 43 0 16 9 24 20 17 11
-7 20 -3 20 8 0 11 -8 25 -18 31 -26 16 44 147 73 136 16 -6 25 9 25 40 0 26
5 53 11 60 18 18 26 254 9 265 -8 5 -20 -8 -26 -30z"/>
<path d="M5179 2995 c-10 -46 -8 -172 3 -160 27 28 44 165 20 165 -12 0 -22
-2 -23 -5z"/>
<path d="M5922 2913 c-16 -20 -12 -36 18 -63 39 -35 40 -35 40 16 0 62 -27 84
-58 47z"/>
<path d="M5060 2841 c0 -43 9 -84 20 -91 12 -7 20 13 20 47 0 33 5 74 12 91 8
21 1 32 -20 32 -24 0 -32 -20 -32 -79z"/>
<path d="M6034 2906 c-29 -7 -31 -15 -13 -38 35 -41 79 -34 79 12 0 41 -3 42
-66 26z"/>
<path d="M5960 2788 c0 -18 -40 -28 -120 -32 -16 -1 -59 -23 -94 -49 -35 -26
-73 -47 -85 -47 -11 0 -20 -34 -19 -75 3 -75 3 -75 18 -15 8 33 16 49 18 35 1
-14 13 -25 27 -25 14 0 37 -19 52 -42 17 -27 39 -38 64 -32 47 12 70 -18 41
-54 -17 -20 -7 -25 49 -22 74 5 94 16 102 56 3 13 10 50 17 83 7 32 16 65 21
72 5 8 -9 38 -31 67 -22 28 -39 57 -38 64 1 6 -4 17 -10 23 -7 6 -12 3 -12 -7z
m-34 -94 c43 43 64 22 31 -31 -22 -35 -20 -46 17 -78 28 -24 37 -47 27 -64
-13 -21 -28 -15 -69 25 -46 46 -55 48 -82 21 -40 -40 -67 18 -29 64 19 23 20
36 2 54 -44 44 -23 62 23 19 43 -41 48 -41 80 -10z"/>
<path d="M6965 2739 c-36 -14 -65 -59 -38 -59 15 0 133 63 133 71 0 14 -46 8
-95 -12z"/>
<path d="M6078 2735 c-1 -3 -5 -45 -8 -95 -5 -67 -2 -77 10 -40 14 45 16 43
18 -24 2 -61 9 -73 42 -71 31 3 40 17 39 64 -1 57 -3 58 -20 16 -28 -70 -46
-53 -32 30 7 43 5 64 -5 48 -13 -21 -19 -20 -29 7 -7 19 -8 42 -2 52 6 10 6
18 0 18 -6 0 -12 -2 -13 -5z"/>
<path d="M6809 2650 c-5 -16 -13 -44 -19 -61 -7 -22 1 -30 23 -25 21 4 34 27
36 61 2 59 -24 75 -40 25z"/>
<path d="M7134 2400 c-6 -22 -2 -45 8 -51 11 -7 -1 -28 -25 -47 -53 -43 -38
-102 26 -102 43 0 44 1 6 28 -37 28 -37 29 16 53 42 19 50 31 33 51 -29 35 -2
74 43 62 25 -7 33 -1 25 18 -17 45 -119 35 -132 -12z"/>
<path d="M4980 2300 c0 -65 30 -82 44 -25 12 43 -1 85 -26 85 -10 0 -18 -27
-18 -60z"/>
<path d="M6617 2148 c-4 -50 -1 -96 7 -100 8 -5 6 -32 -5 -60 -10 -28 -19 -71
-19 -97 0 -25 -13 -57 -30 -71 -25 -21 -30 -19 -30 12 0 28 -5 31 -24 12 -19
-19 -19 -39 -1 -87 16 -43 17 -74 3 -100 -11 -21 -23 -67 -27 -102 -5 -36 -14
-112 -21 -170 -18 -143 -3 -132 52 40 25 80 63 165 85 190 35 40 36 45 6 45
-23 0 -33 16 -31 55 0 30 6 44 11 30 6 -14 19 -25 29 -25 27 0 22 55 -7 68
-14 6 -6 7 17 1 36 -8 46 4 68 82 15 51 39 105 55 122 17 16 24 35 17 42 -7 7
-27 -7 -44 -31 -42 -61 -76 -55 -36 6 18 28 47 50 64 50 23 0 26 6 10 22 -15
15 -33 16 -62 0 -32 -17 -43 -14 -53 13 -7 19 -4 37 8 41 32 11 26 104 -7 104
-19 0 -30 -30 -35 -92z"/>
<path d="M6993 2183 c-18 -20 -33 -41 -33 -48 0 -17 99 12 100 30 1 47 -2 55
-17 55 -9 0 -32 -16 -50 -37z"/>
<path d="M6520 1990 c0 -60 7 -110 16 -110 8 0 17 50 20 110 3 64 -4 110 -16
110 -11 0 -20 -49 -20 -110z"/>
<path d="M6893 2003 c-34 -38 -44 -83 -18 -83 9 0 27 19 42 42 25 40 27 40 64
7 54 -49 72 -22 21 29 -51 51 -67 52 -109 5z"/>
<path d="M6792 1848 c-14 -35 0 -68 29 -68 11 0 19 23 19 50 0 56 -29 67 -48
18z"/>
<path d="M4870 1625 c11 -8 22 -58 25 -111 3 -52 18 -124 33 -160 27 -64 27
-63 21 46 -3 61 -7 139 -7 175 -2 54 -10 65 -47 65 -25 0 -36 -7 -25 -15z"/>
<path d="M7455 1326 c-49 -12 -44 -44 10 -65 53 -20 85 3 68 48 -12 32 -18 33
-78 17z"/>
<path d="M4700 1300 c0 -11 14 -20 30 -20 17 0 30 -17 30 -38 0 -21 18 -42 40
-48 45 -12 55 21 12 38 -15 6 -33 28 -38 49 -10 40 -74 56 -74 19z"/>
<path d="M6290 1295 c-37 -21 -35 -24 30 -37 82 -17 95 -10 60 32 -30 36 -37
36 -90 5z"/>
<path d="M3514 3773 c-22 -57 -17 -73 26 -73 22 0 40 9 40 20 0 11 -8 20 -19
20 -10 0 -21 16 -25 35 -7 33 -8 32 -22 -2z"/>
<path d="M4204 3231 c-14 -31 -15 -54 -3 -61 10 -7 19 1 19 18 0 18 11 26 29
20 20 -8 25 0 17 30 -14 55 -35 53 -62 -7z"/>
<path d="M4121 3120 c-3 -5 -7 -50 -11 -100 -7 -87 -6 -88 13 -23 15 53 13
162 -2 123z"/>
<path d="M3876 3054 c-5 -26 -3 -64 4 -85 8 -21 3 -49 -12 -63 -14 -15 -21
-55 -16 -96 4 -38 1 -70 -8 -70 -10 0 -17 -27 -17 -60 0 -33 8 -60 19 -60 10
0 14 25 8 55 -10 52 -9 53 20 15 29 -39 30 -39 17 5 -8 25 -5 45 5 45 11 0 24
23 29 50 5 28 2 50 -8 50 -9 0 -17 13 -17 29 0 18 15 26 42 21 35 -7 38 -4 17
21 -14 17 -19 35 -13 42 7 7 0 30 -15 52 -15 22 -23 52 -17 67 5 16 1 28 -10
28 -10 0 -23 -21 -28 -46z"/>
<path d="M3760 2337 c0 -27 -8 -58 -19 -68 -11 -12 -4 -36 19 -65 l38 -46 -8
104 c-8 106 -30 162 -30 75z"/>
<path d="M1200 3710 c-14 -16 -17 -30 -7 -30 27 0 64 -95 58 -150 -5 -41 3
-50 42 -50 40 0 45 6 30 35 -9 19 -14 46 -9 60 5 14 0 25 -12 25 -12 0 -22 21
-22 48 0 66 -47 102 -80 62z"/>
<path d="M905 3617 c-33 -33 -32 -81 4 -128 27 -35 30 -36 30 -4 1 19 15 35
31 35 17 0 30 9 30 20 0 11 -8 20 -17 20 -9 0 -25 18 -35 41 -15 32 -23 36
-43 16z"/>
<path d="M1180 2926 c0 -26 82 -91 96 -76 19 18 -26 79 -63 86 -18 4 -33 -1
-33 -10z"/>
<path d="M1085 2735 c7 -34 48 -75 74 -75 16 0 16 11 2 38 -23 43 -83 72 -76
37z"/>
<path d="M1240 2730 c-18 -21 -20 -38 -6 -52 27 -27 69 25 48 59 -12 19 -21
18 -42 -7z"/>
<path d="M860 2604 c0 -29 91 -97 117 -88 13 4 48 -16 77 -44 65 -65 86 -66
86 -1 0 41 -8 49 -36 40 -44 -14 -155 38 -171 79 -12 31 -73 42 -73 14z"/>
<path d="M733 2568 c11 -27 6 -32 -19 -22 -22 8 -29 3 -21 -17 13 -34 65 -37
107 -7 26 19 26 20 -3 11 -21 -6 -31 1 -30 21 2 18 -8 36 -22 41 -17 5 -21 -3
-12 -27z"/>
<path d="M745 2399 c6 -17 -5 -53 -25 -79 -20 -26 -31 -59 -26 -74 6 -14 -1
-26 -14 -26 -13 0 -19 -13 -13 -30 6 -16 5 -29 -3 -27 -40 6 -60 -7 -70 -43
-6 -25 0 -40 16 -40 15 0 30 -15 34 -34 6 -31 8 -31 39 -1 18 18 38 28 45 21
6 -7 12 3 12 22 0 19 -9 29 -20 22 -11 -7 -20 11 -20 42 0 30 6 49 12 42 7 -7
23 -1 36 12 27 28 30 184 3 208 -10 9 -12 2 -6 -15z"/>
<path d="M1334 2301 c-6 -24 -1 -38 13 -35 14 2 23 -24 23 -64 0 -38 11 -72
25 -77 16 -5 25 13 25 53 0 42 10 62 30 62 17 0 30 13 30 28 0 15 -16 26 -35
25 -19 -2 -33 8 -30 22 8 42 -70 28 -81 -14z"/>
<path d="M1409 2091 c-63 -109 -58 -119 50 -101 86 14 131 50 62 50 -22 0 -39
11 -36 25 3 14 -6 23 -20 20 -32 -6 -32 20 -1 51 13 13 18 29 11 35 -6 7 -36
-29 -66 -80z"/>
<path d="M960 2091 c0 -16 9 -34 20 -41 11 -7 21 -37 22 -66 2 -42 5 -45 13
-14 5 22 20 46 32 54 15 10 8 28 -21 55 -52 49 -66 51 -66 12z"/>
<path d="M1444 1947 c-15 -15 -35 -23 -45 -16 -11 6 -19 -3 -19 -20 0 -21 19
-31 60 -31 59 0 75 26 45 73 -11 16 -22 15 -41 -6z"/>
<path d="M576 1853 c-13 -66 12 -134 31 -85 18 49 16 108 -5 121 -9 6 -21 -10
-26 -36z"/>
<path d="M1431 1835 c9 -24 3 -35 -19 -35 -18 0 -32 -9 -32 -20 0 -11 9 -20
20 -20 11 0 18 -11 15 -25 -3 -14 9 -25 25 -25 34 0 32 105 -3 140 -13 13 -15
8 -6 -15z"/>
<path d="M1040 1754 c0 -21 -9 -31 -22 -23 -15 10 -15 1 1 -29 12 -23 20 -66
17 -95 -3 -29 4 -56 16 -61 28 -9 35 173 8 214 -16 25 -19 25 -20 -6z"/>
<path d="M1100 1703 c0 -34 87 -133 117 -133 7 0 12 -16 11 -35 0 -19 11 -35
27 -35 16 0 21 -10 13 -23 -10 -16 -3 -20 20 -10 20 7 62 13 94 13 57 0 58 1
28 47 -16 25 -23 54 -15 63 8 9 4 10 -8 3 -13 -7 -38 1 -55 18 -18 18 -32 23
-32 13 0 -11 20 -34 45 -52 25 -19 34 -28 20 -22 -14 7 -25 -1 -25 -19 0 -17
-9 -31 -20 -31 -11 0 -20 10 -20 21 0 12 -7 17 -15 12 -8 -5 -12 28 -9 74 6
74 0 86 -49 108 -79 36 -127 32 -127 -12z"/>
<path d="M1489 1679 c-9 -14 66 -46 98 -41 9 2 13 -13 9 -32 -7 -36 64 -126
99 -126 35 0 44 56 14 81 -16 13 -29 32 -29 43 0 51 -165 116 -191 75z"/>
<path d="M1317 1351 c-23 -51 -12 -111 21 -111 11 0 25 18 32 40 7 22 21 35
31 29 30 -18 22 31 -10 62 -39 39 -48 37 -74 -20z"/>
<path d="M1013 1367 c-25 -26 -13 -62 25 -72 46 -12 83 19 68 57 -11 29 -69
38 -93 15z"/>
<path d="M3869 8144 c-11 -8 -19 -25 -17 -39 2 -14 4 -34 6 -45 1 -11 15 -20
30 -20 16 0 34 -11 40 -25 6 -14 5 2 -1 35 -17 83 -34 111 -58 94z"/>
<path d="M4300 8139 c0 -10 14 -19 32 -19 20 0 28 -11 21 -29 -6 -17 -3 -35 8
-42 17 -10 28 18 21 57 -2 10 6 11 18 4 11 -7 14 -23 6 -36 -8 -14 1 -12 20 3
56 46 39 74 -46 78 -44 1 -80 -6 -80 -16z"/>
<path d="M4588 8117 c-8 -14 -5 -18 7 -10 12 7 25 3 30 -11 5 -17 21 -14 56
10 l48 34 -63 0 c-35 0 -70 -10 -78 -23z"/>
<path d="M3546 8026 c-78 -15 -98 -62 -37 -86 78 -29 117 -25 104 10 -14 36
10 39 43 6 19 -19 24 -16 24 10 0 23 -16 34 -51 34 -29 0 -46 9 -39 20 7 11
10 19 6 17 -3 -1 -26 -6 -50 -11z"/>
<path d="M4723 7866 c-54 -27 -79 -29 -127 -11 -69 27 -118 14 -103 -27 8 -20
2 -25 -21 -16 -17 7 -32 23 -32 35 -1 17 -5 16 -16 -1 -8 -13 -32 -22 -54 -20
-28 3 -42 -10 -46 -41 -4 -25 -16 -45 -28 -45 -11 0 -15 -13 -9 -30 7 -18 0
-30 -17 -30 -17 0 -24 -12 -18 -29 10 -26 17 -26 57 0 25 16 85 33 133 38 48
4 153 22 232 41 112 25 160 28 220 11 175 -48 190 -16 41 87 -120 82 -122 83
-212 38z"/>
<path d="M3836 7700 c10 -72 -36 -84 -66 -17 -24 50 -150 69 -218 32 -23 -13
-58 -26 -78 -29 -20 -3 -63 -20 -97 -37 -57 -30 -61 -30 -71 10 -14 52 -60 18
-125 -92 -43 -72 -29 -82 55 -40 114 58 687 106 655 55 -22 -36 45 -38 98 -3
58 38 47 58 -36 65 -27 3 -46 10 -42 18 8 13 -57 98 -75 98 -5 0 -5 -27 0 -60z"/>
<path d="M4128 7723 c7 -11 4 -26 -8 -33 -11 -7 -20 -29 -20 -49 0 -46 90 -67
122 -28 18 21 13 27 -25 29 -26 0 -36 6 -22 11 37 15 30 43 -17 68 -26 14 -38
15 -30 2z"/>
<path d="M4460 7657 c0 -10 -13 -17 -28 -17 -58 0 -149 -109 -138 -166 7 -35
2 -54 -14 -54 -17 0 -20 -17 -9 -55 8 -30 14 -72 13 -93 -3 -68 55 -157 97
-146 22 6 54 -8 78 -33 176 -186 220 -230 261 -258 110 -78 -97 -117 -259 -50
-78 32 -241 -2 -241 -51 0 -11 -17 -5 -38 14 -25 23 -43 27 -51 13 -7 -11 -42
-21 -77 -21 -75 -1 -119 -25 -126 -68 -2 -18 3 -27 13 -22 20 13 296 49 481
63 155 12 298 -20 298 -66 0 -25 -11 -28 -55 -14 -136 42 -579 1 -669 -61 -25
-18 -64 -32 -87 -32 -24 0 -64 -18 -89 -40 -58 -51 -73 -50 -101 2 -13 24 -15
38 -6 33 9 -6 30 3 46 21 26 28 26 30 -3 19 -94 -36 -106 57 -27 212 41 81 72
164 68 185 -8 39 -12 36 -125 -92 -62 -69 -90 -169 -72 -250 3 -11 8 -69 11
-130 9 -149 19 -223 39 -267 10 -25 6 -43 -12 -54 -21 -14 -22 -23 -4 -41 19
-19 31 -19 55 1 21 18 31 19 31 3 0 -12 9 -22 20 -22 20 0 17 36 -11 165 -14
65 33 76 107 24 24 -17 44 -27 44 -21 0 6 24 -12 53 -39 29 -27 81 -57 115
-66 44 -12 61 -28 58 -54 -4 -49 27 -68 109 -69 36 0 65 -7 65 -16 0 -9 32
-17 70 -18 53 -2 70 6 70 31 0 18 18 45 41 59 23 14 39 42 35 61 -6 35 311
403 347 403 9 0 17 -13 17 -30 0 -16 9 -30 20 -30 33 0 -3 128 -48 165 -23 20
-28 31 -12 25 74 -26 35 136 -50 206 -44 37 -95 84 -114 107 -19 22 -82 67
-140 100 -82 46 -93 58 -50 51 77 -12 58 26 -26 54 -100 32 -141 120 -60 128
32 4 76 -3 98 -15 23 -12 44 -14 51 -3 6 10 45 14 86 8 88 -12 209 16 220 50
6 17 -16 21 -78 13 -48 -5 -132 -2 -187 7 l-100 17 113 24 c85 19 115 35 124
66 11 44 53 33 53 -14 0 -19 23 -30 65 -32 36 -2 79 -4 95 -6 35 -3 100 32
100 54 0 8 -18 15 -40 15 -22 0 -40 8 -40 18 0 33 -133 102 -192 101 -55 -1
-54 -3 28 -43 103 -49 100 -63 -6 -33 -79 21 -206 15 -280 -15 -36 -14 -37
-12 -13 18 16 19 40 34 54 34 55 0 46 36 -11 44 -33 5 -60 2 -60 -7z m68 -149
c17 -46 16 -48 -28 -48 -39 0 -54 39 -27 67 22 22 42 15 55 -19z m112 -983 c0
-30 -94 -71 -122 -54 -10 6 -18 2 -18 -10 0 -11 -22 -21 -49 -21 -27 0 -54 -8
-59 -17 -18 -29 -393 -77 -507 -66 -35 4 -32 63 3 63 16 0 32 10 36 22 4 13
46 24 92 25 57 2 84 11 84 30 0 20 20 25 70 19 38 -4 72 0 75 10 4 10 40 18
81 18 41 0 74 9 74 20 0 12 23 16 50 11 28 -5 55 -3 61 6 14 23 129 -26 129
-56z m-129 -184 c-31 -33 -82 -65 -114 -72 -31 -6 -62 -20 -68 -31 -18 -29
-89 -21 -89 10 0 23 -13 24 -69 7 -50 -15 -92 -14 -160 5 -123 34 -98 50 86
52 176 3 307 27 393 73 81 43 89 27 21 -44z"/>
<path d="M3654 7546 c-36 -9 -36 -10 0 -37 33 -25 28 -28 -44 -29 -47 0 -115
-21 -165 -49 -47 -27 -85 -41 -85 -31 0 10 18 28 40 40 52 28 52 59 -1 46
-125 -33 -207 -198 -104 -210 78 -9 147 26 134 68 -8 24 8 44 51 66 l62 32 -6
-56 c-6 -55 -4 -56 84 -51 l90 6 -67 -41 c-36 -23 -98 -48 -138 -56 -97 -20
-110 -64 -20 -64 81 0 315 111 315 149 0 15 13 32 30 38 18 7 24 24 16 45 -10
28 -4 32 31 23 73 -19 53 56 -25 93 -67 31 -126 37 -198 18z m95 -137 c21 -16
29 -29 16 -29 -12 0 -36 -5 -53 -12 -23 -9 -32 0 -32 30 0 49 15 52 69 11z"/>
<path d="M3964 7158 c-35 -34 -59 -70 -53 -80 20 -33 67 -19 91 27 13 25 34
51 46 59 15 10 15 21 1 35 -15 15 -41 2 -85 -41z"/>
<path d="M4315 6978 c-62 -36 -41 -71 37 -62 43 6 79 -1 87 -15 11 -18 24 -15
49 10 58 58 -90 116 -173 67z"/>
<path d="M3906 6890 c-47 -42 -51 -52 -26 -69 43 -29 80 -26 80 7 0 16 30 33
70 41 74 14 91 39 38 59 -59 23 -106 12 -162 -38z"/>
<path d="M4155 6872 c-40 -30 -26 -52 35 -52 57 0 75 20 47 53 -27 33 -38 33
-82 -1z"/>
<path d="M4940 6774 c0 -15 13 -44 29 -65 17 -22 30 -60 30 -85 1 -26 10 -41
20 -35 11 7 14 26 7 44 -6 17 0 38 15 48 21 13 22 27 3 68 -24 53 -104 72
-104 25z"/>
<path d="M4871 6376 c9 -27 6 -36 -9 -27 -13 8 -22 -3 -22 -28 0 -22 9 -41 20
-41 11 0 20 9 20 20 0 11 25 21 55 22 30 0 44 6 30 11 -14 6 -21 17 -17 24 5
8 -14 24 -41 37 -45 21 -48 20 -36 -18z"/>
<path d="M4976 5517 c-4 -12 -30 -23 -57 -25 -42 -2 -92 -92 -51 -92 54 0 172
70 172 102 0 41 -52 53 -64 15z"/>
<path d="M3947 5424 c8 -12 65 -32 128 -45 63 -13 125 -28 139 -33 15 -6 26
-1 26 10 0 11 -47 31 -105 43 -57 12 -126 28 -153 35 -32 8 -43 5 -35 -10z"/>
<path d="M3665 5395 c5 -14 26 -23 47 -21 21 2 44 -7 52 -20 8 -14 61 -24 123
-24 129 0 130 22 2 41 -49 8 -94 22 -100 31 -18 29 -134 22 -124 -7z"/>
<path d="M4701 5392 c-32 -39 -3 -49 78 -28 52 15 61 23 40 37 -42 27 -91 23
-118 -9z"/>
<path d="M4320 5327 c-16 -4 -45 -35 -64 -68 l-34 -59 84 0 c64 0 91 10 110
42 42 67 -6 110 -96 85z"/>
<path d="M4160 5180 c0 -11 -19 -20 -41 -20 -23 0 -36 -9 -29 -20 7 -11 41
-19 76 -18 35 2 49 7 30 12 -20 5 -29 21 -23 37 6 16 6 29 -1 29 -7 0 -12 -9
-12 -20z"/>
<path d="M4551 5133 l-58 -47 62 4 c68 4 131 44 114 72 -19 30 -56 20 -118
-29z"/>
<path d="M4382 4882 c-40 -30 -43 -40 -18 -54 16 -10 36 -36 44 -58 15 -40 15
-40 48 0 19 23 49 38 67 34 25 -5 31 4 23 35 -6 22 -19 36 -28 30 -10 -6 -18
3 -18 20 0 42 -59 38 -118 -7z"/>
<path d="M3750 4820 c-10 -17 64 -80 95 -80 22 0 -29 77 -59 89 -14 5 -30 1
-36 -9z"/>
<path d="M4058 4769 c0 -21 -4 -55 -8 -74 -3 -19 2 -35 12 -35 10 0 18 13 18
28 0 16 11 33 25 38 18 7 16 19 -10 46 -34 35 -35 35 -37 -3z"/>
<path d="M4340 4677 c0 -9 7 -16 15 -14 29 6 85 -28 74 -45 -18 -29 31 -21 62
11 37 37 37 53 -1 38 -16 -6 -30 -3 -30 8 0 10 -27 18 -60 18 -33 0 -60 -7
-60 -16z"/>
<path d="M3720 4570 c0 -4 71 -49 158 -100 87 -51 177 -111 199 -132 23 -21
51 -38 62 -38 12 0 21 -10 21 -21 0 -12 8 -16 19 -10 10 7 26 -2 36 -19 26
-47 174 -29 226 27 l42 45 -52 -13 c-28 -8 -51 -5 -51 5 0 11 -11 20 -25 22
-14 1 -61 6 -105 9 -68 6 -192 53 -144 54 29 1 -64 106 -119 134 -63 33 -74
34 -55 4 10 -17 0 -19 -34 -9 -90 27 -178 48 -178 42z"/>
<path d="M4567 4401 c-57 -70 -35 -112 32 -62 39 29 45 45 30 76 -18 38 -21
38 -62 -14z"/>
<path d="M4641 4069 c-90 -63 -55 -62 49 2 44 27 67 48 50 48 -16 -1 -61 -23
-99 -50z"/>
</g>
</svg>
